<svg xmlns="http://www.w3.org/2000/svg" viewBox="0 0 1200 760">
  <defs>
    <linearGradient id="bg" x1="0" y1="0" x2="1" y2="1"><stop stop-color="#fffaff"/><stop offset="1" stop-color="#efe5ff"/></linearGradient>
    <linearGradient id="g" x1="0" x2="1"><stop stop-color="#b47be0"/><stop offset="1" stop-color="#f0a8cf"/></linearGradient>
    <filter id="shadow"><feDropShadow dx="0" dy="20" stdDeviation="24" flood-color="#7f53a5" flood-opacity=".15"/></filter>
  </defs>
  <rect width="1200" height="760" rx="48" fill="url(#bg)"/>
  <circle cx="1030" cy="120" r="190" fill="#f8d8ec" opacity=".35"/>
  <circle cx="170" cy="650" r="220" fill="#ded0fa" opacity=".45"/>
  <g filter="url(#shadow)" transform="translate(155 155)">
    <path d="M80 405V155h770v250" fill="#fff" stroke="#7d4caa" stroke-width="12" stroke-linejoin="round"/>
    <path d="M165 405V235h600v170" fill="#fbf7ff" stroke="#b57bdc" stroke-width="9"/>
    <rect x="360" y="245" width="210" height="160" rx="7" fill="url(#g)" opacity=".22" stroke="#7d4caa" stroke-width="8"/>
    <path d="M60 405h810" stroke="#7d4caa" stroke-width="15" stroke-linecap="round"/>
    <path d="M100 125h730" stroke="#b57bdc" stroke-width="14" stroke-linecap="round"/>
  </g>
  <g fill="#7d4caa">
    <circle cx="505" cy="610" r="18"/><circle cx="600" cy="610" r="18"/><circle cx="695" cy="610" r="18"/>
  </g>
  <path d="M505 632v48m95-48v48m95-48v48" stroke="#7d4caa" stroke-width="10" stroke-linecap="round"/>
  <text x="600" y="90" text-anchor="middle" fill="#56336f" font-family="Georgia,serif" font-size="34" font-style="italic">A little reimagining of Fifth Gate</text>
  <text x="600" y="720" text-anchor="middle" fill="#805b95" font-family="Arial,sans-serif" font-size="22">not a real photograph · just a soft stand-in for the place</text>
</svg>
